<svg version="1" xmlns="http://www.w3.org/2000/svg" width="933.333" height="933.333"
     viewBox="0 0 700.000000 700.000000">
    <path d="M324 .6c-1.9.2-7.8.9-13 1.4-98.9 11.1-190.1 66.2-247.2 149.5C31.7 198.3 13.1 248 4.8 309c-1.7 12.8-1.7 66.2 0 79 10.3 75.3 37 136.8 82.8 191 9.5 11.2 34.8 35.8 45.2 44 53.9 42 106.3 63.4 177.2 72.2 16.4 2 77.7 1.7 95.5-.6 46.3-5.8 78.4-15.8 113.2-35.3 52.6-29.4 94.1-67.3 123.6-113 27.6-42.6 47.6-99 55.3-155.8 2.6-18.4 2.6-65.6 0-84-11.1-82-45.5-151.4-102.6-207.4-53.6-52.6-121.8-85.8-198.5-96.7C386.1.9 332.8-.4 324 .6zm-57 209.9l17.1-17.1 17.2 17.3 17.2 17.3 17.5-17.5 17.5-17.5 17.5 17.5 17.5 17.5 17.2-17.2 17.3-17.3 17.3 17.3 17.2 17.2 17.3-17.2 17.2-17.3 17.3 17.3 17.2 17.2 17.5-17.5c9.6-9.6 17.8-17.5 18.2-17.5.5 0 .8 73.3.8 162.9v162.9l-2.8 5.3c-3.4 6.6-9.4 11.4-16.2 12.8-7.2 1.5-371.8 1.5-379 0-7-1.5-12.8-6.2-16.5-13.4l-3-5.9-.3-161.8c-.1-89 .1-161.8.5-161.8s8.4 7.7 17.8 17l17 17 17.5-17.5 17.5-17.5 17.2 17.2 17.3 17.3 17-17z"/>
    <path d="M182 332.5V363h121.3c66.6 0 141.1.3 165.5.7l44.2.6V302H182v30.5zM182 451.5V503h149V400H182v51.5zM363 416.5V433h149v-5.3c0-2.8.3-10.3.7-16.5l.6-11.2H363v16.5zM363 486v17h149v-34H363v17z"/>
</svg>